<?xml version="1.0" standalone="no"?>
<!DOCTYPE svg PUBLIC "-//W3C//DTD SVG 20010904//EN"
 "http://www.w3.org/TR/2001/REC-SVG-20010904/DTD/svg10.dtd">
<svg version="1.0" xmlns="http://www.w3.org/2000/svg"
 width="504.000000pt" height="504.000000pt" viewBox="0 0 504.000000 504.000000"
 preserveAspectRatio="xMidYMid meet">
<metadata>
Created by potrace 1.11, written by Peter Selinger 2001-2013
</metadata>
<g transform="translate(0.000000,504.000000) scale(0.100000,-0.100000)"
fill="#000000" stroke="none">
<path d="M445 5004 c-128 -24 -251 -102 -312 -197 -44 -67 -49 -79 -68 -155
-31 -129 -22 -308 23 -417 41 -102 164 -245 353 -409 227 -198 292 -301 293
-463 0 -71 -4 -87 -27 -121 l-26 -40 52 21 c29 11 66 26 82 32 17 7 46 18 65
25 19 6 44 16 55 21 11 5 61 24 110 43 l90 34 -1 58 c-2 209 -99 378 -348 607
-297 273 -339 330 -340 467 -1 57 4 84 20 115 36 71 131 101 195 63 42 -26 72
-121 82 -258 3 -49 7 -51 87 -37 19 3 58 9 85 12 28 4 57 8 65 10 8 2 38 7 65
11 54 7 68 12 61 22 -2 4 -7 36 -11 72 -4 35 -11 74 -16 87 -5 13 -7 23 -4 23
7 0 -33 109 -61 166 -47 96 -145 183 -226 200 -87 18 -122 22 -193 22 -44 -1
-111 -7 -150 -14z"/>
<path d="M3130 5017 c-3 -2 -25 -7 -50 -10 -98 -12 -214 -71 -285 -145 -41
-42 -92 -126 -99 -164 -2 -7 -6 -20 -9 -28 -21 -50 -29 -254 -13 -329 35 -163
115 -275 336 -471 87 -76 231 -219 262 -258 31 -38 68 -128 74 -178 3 -27 7
-58 9 -69 4 -33 -15 -98 -36 -127 -11 -16 -18 -28 -16 -28 5 0 86 28 107 37 8
3 20 7 25 9 27 8 103 37 130 49 17 8 66 27 110 43 l80 30 -1 48 c-2 134 -33
231 -108 343 -20 29 -36 55 -36 57 0 10 -64 78 -175 184 -251 241 -320 315
-344 365 -43 91 -38 218 10 279 60 76 188 62 223 -24 20 -50 35 -139 39 -233
1 -15 7 -17 42 -12 61 10 88 14 110 19 11 2 45 7 75 12 30 4 60 8 65 9 6 1 23
3 39 3 l28 2 -7 66 c-21 206 -116 405 -220 460 -73 39 -142 56 -250 61 -60 3
-112 3 -115 0z"/>
<path d="M4379 5015 c-2 -2 -21 -6 -43 -9 -54 -9 -165 -54 -206 -84 -132 -98
-198 -242 -198 -435 -1 -249 77 -382 378 -647 88 -76 172 -160 218 -214 104
-125 126 -321 45 -410 -15 -16 -21 -25 -13 -19 8 6 110 47 225 91 116 44 217
83 226 87 13 5 15 17 12 58 -2 29 -4 59 -4 67 -3 59 -77 247 -101 258 -5 2 -8
9 -8 16 0 7 -8 21 -17 32 -10 10 -30 35 -45 55 -34 45 -150 162 -253 254 -106
94 -194 185 -201 207 -3 10 -9 18 -14 18 -8 0 -37 66 -47 105 -18 76 8 195 51
226 38 29 93 39 134 26 64 -21 93 -88 107 -247 4 -35 7 -66 9 -67 3 -4 326 45
344 52 9 3 12 16 8 42 -16 104 -22 140 -30 168 -2 6 -6 24 -11 40 -4 17 -23
62 -42 100 -80 165 -186 225 -404 231 -65 1 -119 1 -120 -1z"/>
<path d="M1654 4988 c-3 -4 -6 -20 -8 -35 -3 -23 -28 -154 -71 -378 -15 -78
-36 -193 -41 -225 -3 -19 -9 -51 -14 -70 -5 -19 -11 -53 -15 -75 -3 -22 -7
-47 -10 -55 -2 -8 -7 -31 -10 -50 -3 -19 -10 -57 -15 -85 -6 -27 -12 -63 -15
-80 -2 -16 -11 -66 -20 -110 -9 -44 -18 -93 -20 -110 -3 -16 -9 -52 -15 -80
-5 -27 -12 -66 -15 -85 -4 -19 -10 -53 -15 -75 -5 -22 -12 -56 -15 -75 -3 -19
-21 -116 -40 -215 -19 -99 -36 -196 -40 -215 -3 -19 -8 -46 -10 -60 l-5 -25
191 0 c218 1 201 -7 214 95 4 29 9 62 11 74 6 26 9 46 18 113 4 29 11 67 16
84 5 18 7 36 4 40 -3 5 -1 9 4 9 5 0 8 10 8 23 -1 22 0 22 162 25 126 2 162 0
163 -10 1 -18 5 -47 13 -90 3 -21 9 -55 12 -75 3 -21 11 -76 19 -123 8 -47 16
-100 19 -118 2 -19 7 -37 10 -40 9 -8 367 -8 372 0 3 4 0 36 -7 70 -6 35 -13
72 -15 83 -2 11 -10 56 -18 100 -9 44 -18 94 -21 110 -3 17 -10 55 -16 85 -6
30 -12 64 -14 75 -5 35 -15 89 -22 120 -3 17 -7 39 -9 50 -1 11 -12 67 -23
125 -11 58 -23 119 -26 135 -2 17 -7 40 -9 51 -2 12 -7 37 -10 55 -3 19 -10
59 -16 89 -6 30 -17 91 -25 135 -8 44 -17 91 -20 105 -5 27 -24 129 -31 170
-3 14 -16 86 -30 160 -14 74 -28 146 -30 160 -25 139 -37 197 -44 210 -7 12
-46 14 -230 15 -122 0 -224 -3 -226 -7z m251 -663 c4 -27 8 -59 9 -70 2 -11 7
-42 11 -70 4 -27 9 -61 11 -75 2 -14 6 -45 9 -70 3 -25 8 -54 10 -66 3 -12 7
-36 9 -55 3 -19 10 -70 16 -114 6 -44 14 -96 17 -115 13 -80 22 -74 -113 -75
l-120 -1 8 55 c9 67 16 114 22 161 3 19 7 49 10 65 2 17 8 54 11 84 4 30 9 63
11 75 3 12 7 41 9 66 2 25 4 45 5 45 3 0 8 31 14 86 4 30 9 68 12 84 3 17 7
46 9 65 2 19 4 37 5 40 3 8 18 -61 25 -115z"/>
<path d="M300 3559 c-19 -4 -55 -11 -79 -14 -25 -3 -47 -8 -50 -9 -3 -2 -27
-7 -53 -10 -76 -10 -77 -11 -72 -69 10 -119 25 -196 49 -253 8 -19 12 -34 9
-34 -7 0 47 -96 71 -126 l21 -27 215 83 c118 45 215 83 216 84 1 1 -16 3 -39
3 -115 5 -180 129 -187 356 -1 25 -4 27 -33 25 -18 -1 -49 -5 -68 -9z"/>
<path d="M2936 3563 c-2 -2 -19 -6 -37 -8 -45 -7 -78 -13 -109 -20 -14 -3 -45
-8 -70 -11 -25 -3 -48 -8 -52 -10 -7 -5 -2 -117 8 -163 2 -14 7 -38 9 -52 2
-14 13 -52 25 -85 11 -32 22 -64 23 -69 5 -19 56 -101 70 -113 15 -13 14 -14
300 96 134 52 153 61 114 57 -66 -8 -145 63 -168 150 -19 69 -33 166 -30 213
1 21 -3 23 -39 20 -23 -1 -42 -3 -44 -5z"/>
<path d="M4217 3564 c-1 -1 -20 -5 -42 -8 -39 -6 -141 -24 -180 -31 -11 -2
-31 -4 -44 -4 -23 -1 -23 -2 -17 -87 3 -47 7 -88 10 -92 2 -4 7 -23 10 -42 14
-89 55 -186 108 -260 l17 -24 138 53 c314 121 301 115 248 118 -64 3 -134 74
-150 150 -2 10 -8 39 -14 64 -6 25 -12 74 -13 108 l-3 61 -33 -2 c-18 -1 -34
-3 -35 -4z"/>
<path d="M0 1439 l0 -1429 343 0 342 0 -1 562 c0 310 4 567 8 573 5 5 29 39
55 73 41 57 47 62 57 45 6 -10 11 -20 12 -23 1 -6 20 -53 38 -95 45 -103 156
-382 156 -392 0 -7 3 -13 8 -13 4 0 13 -18 20 -41 7 -22 22 -61 34 -86 12 -25
21 -52 21 -59 0 -8 4 -14 9 -14 4 0 8 -6 8 -14 0 -7 13 -44 29 -82 34 -79 42
-99 120 -289 l57 -140 347 -3 c191 -1 347 0 347 3 0 4 -47 114 -92 215 -7 14
-12 27 -13 30 0 3 -13 31 -28 64 -15 32 -27 60 -27 62 0 2 -16 38 -35 80 -19
41 -35 81 -35 88 0 6 -4 16 -9 22 -5 5 -20 36 -34 69 -23 57 -180 419 -214
495 -9 19 -17 37 -17 40 -1 3 -14 31 -29 64 -15 32 -27 60 -27 62 0 2 -12 29
-26 60 -14 31 -41 92 -60 137 l-33 80 110 226 c62 124 118 240 125 256 8 17
19 37 24 45 11 18 234 473 235 480 1 3 27 56 59 119 32 62 62 124 66 137 l9
23 -332 -2 -332 -2 -48 -95 c-27 -52 -142 -279 -257 -505 -115 -225 -215 -423
-224 -440 -9 -16 -16 -36 -16 -42 0 -7 -4 -13 -8 -13 -4 0 -16 -22 -27 -50
-10 -27 -22 -47 -25 -44 -3 3 -5 272 -6 597 l0 592 -342 1 -342 2 0 -1429z"/>
<path d="M2310 1439 l0 -1429 339 0 c262 0 340 3 343 13 3 10 2 2727 -1 2819
l-1 26 -340 1 -340 0 0 -1430z"/>
<path d="M3289 2867 c-3 -5 -5 -413 -2 -422 2 -6 99 -10 267 -9 236 1 265 -1
268 -15 2 -9 3 -555 3 -1213 l-1 -1198 343 0 343 0 2 1213 3 1212 260 1 260 1
3 215 2 216 -875 0 c-481 1 -876 0 -876 -1z"/>
</g>
</svg>
